<svg xmlns="http://www.w3.org/2000/svg" xmlns:xlink="http://www.w3.org/1999/xlink" viewBox="0 0 291.59 76.84"><defs><style>.cls-1{fill:#004898;}.cls-2{fill:url(#名称未設定グラデーション_11);}.cls-3{fill:url(#名称未設定グラデーション_11-2);}.cls-4{fill:url(#名称未設定グラデーション_12);}</style><linearGradient id="名称未設定グラデーション_11" x1="-1582.77" y1="1614.03" x2="-1527.99" y2="1650.11" gradientTransform="translate(2292.21 -16.07) rotate(45)" gradientUnits="userSpaceOnUse"><stop offset="0" stop-color="#004898"/><stop offset="0.06" stop-color="#064d9b"/><stop offset="0.13" stop-color="#165aa3"/><stop offset="0.22" stop-color="#3071b1"/><stop offset="0.31" stop-color="#5590c4"/><stop offset="0.41" stop-color="#83b7dc"/><stop offset="0.48" stop-color="#abd9f1"/><stop offset="1" stop-color="#004898"/></linearGradient><linearGradient id="名称未設定グラデーション_11-2" x1="-1573.91" y1="1635.24" x2="-1535.03" y2="1657.15" xlink:href="#名称未設定グラデーション_11"/><radialGradient id="名称未設定グラデーション_12" cx="-1558.33" cy="1654.2" r="14.43" gradientTransform="translate(2292.21 -16.07) rotate(45)" gradientUnits="userSpaceOnUse"><stop offset="0" stop-color="#abd8f0"/><stop offset="0.1" stop-color="#92c2e2"/><stop offset="0.37" stop-color="#548dbe"/><stop offset="0.6" stop-color="#2766a4"/><stop offset="0.78" stop-color="#0b4e94"/><stop offset="0.88" stop-color="#01458e"/></radialGradient></defs><title>logo</title><g id="レイヤー_2" data-name="レイヤー 2"><g id="レイヤー_1-2" data-name="レイヤー 1"><path class="cls-1" d="M265.34,39.83h12.48a1.08,1.08,0,0,0,1.08-1.08v-3a50.18,50.18,0,0,0,9.37,3.67,1.08,1.08,0,0,0,1.19-.47l2-3a1.08,1.08,0,0,0-.61-1.62C280,31,272.87,26.06,265.39,17.67a1.77,1.77,0,0,0-1.31-.59h-5.5a1.78,1.78,0,0,0-1.31.59c-7.48,8.39-14.57,13.3-25.42,16.58a1.08,1.08,0,0,0-.61,1.62l2,3a1.06,1.06,0,0,0,1.19.46,49.48,49.48,0,0,0,9.37-3.66v3a1.08,1.08,0,0,0,1.08,1.08h12.48c.6,0,1.08.86,1.08,1.45v2.64A1.08,1.08,0,0,1,257.32,45H233.77a1.08,1.08,0,0,0-1.08,1.08v3.2a1.08,1.08,0,0,0,1.08,1.08h55.12A1.08,1.08,0,0,0,290,49.28V46.07A1.08,1.08,0,0,0,288.89,45H265.34a1.08,1.08,0,0,1-1.08-1.08V41.28C264.26,40.69,264.74,39.83,265.34,39.83Zm-19.53-5.22a67.72,67.72,0,0,0,14.76-11.33,1.06,1.06,0,0,1,1.52,0,67.72,67.72,0,0,0,14.76,11.33.07.07,0,0,1,0,.13H265.34a1.08,1.08,0,0,1-1.08-1.08V30.24a1.08,1.08,0,0,0-1.08-1.08h-3.7a1.08,1.08,0,0,0-1.08,1.08v3.42a1.08,1.08,0,0,1-1.08,1.08H245.85A.07.07,0,0,1,245.81,34.61Z"/><path class="cls-1" d="M238.18,55.79V73a1.08,1.08,0,0,0,1.08,1.08H283.4A1.08,1.08,0,0,0,284.48,73V55.79a1.08,1.08,0,0,0-1.08-1.08H239.26A1.08,1.08,0,0,0,238.18,55.79Zm5.86,12V61a1.08,1.08,0,0,1,1.08-1.08h32.43A1.08,1.08,0,0,1,278.62,61V67.8a1.07,1.07,0,0,1-1.07,1.08H245.12A1.08,1.08,0,0,1,244,67.8Z"/><path class="cls-1" d="M196.26,24.06v-.57a1.08,1.08,0,0,1,1.08-1.08h22.44a1.09,1.09,0,0,0,1.08-1.08V18.16a1.08,1.08,0,0,0-1.08-1.08H167a1.08,1.08,0,0,0-1.08,1.08v3.17A1.08,1.08,0,0,0,167,22.41h22.44a1.08,1.08,0,0,1,1.08,1.08v.57a1.08,1.08,0,0,1-1.08,1.07H167.1a1.16,1.16,0,0,0-1.16,1.17V37.92A1.08,1.08,0,0,0,167,39h3.79a1.08,1.08,0,0,0,1.08-1.08V31A1.08,1.08,0,0,1,173,30h16.49A1.08,1.08,0,0,1,190.54,31v9.39a1.08,1.08,0,0,0,1.08,1.08h3.56a1.08,1.08,0,0,0,1.08-1.08V31A1.08,1.08,0,0,1,197.34,30h16.49A1.08,1.08,0,0,1,214.91,31v6.89A1.08,1.08,0,0,0,216,39h3.79a1.08,1.08,0,0,0,1.08-1.08V26.21a1.09,1.09,0,0,0-1.08-1.08H197.34A1.07,1.07,0,0,1,196.26,24.06Z"/><rect class="cls-1" x="174.99" y="32.04" width="12.64" height="3.63" rx="1.08"/><rect class="cls-1" x="174.99" y="37.92" width="12.64" height="3.35" rx="1.08"/><rect class="cls-1" x="199.16" y="32.04" width="12.64" height="3.63" rx="1.08"/><rect class="cls-1" x="199.16" y="37.92" width="12.64" height="3.35" rx="1.08"/><path class="cls-1" d="M220.86,69.87a1.09,1.09,0,0,0-1.1-1.09h-22.7a.8.8,0,0,1-.83-.76V64.91a1.08,1.08,0,0,1,1.08-1.08h19.43a1.08,1.08,0,0,0,1.08-1.08v-18a1.08,1.08,0,0,0-1.08-1.08H169.56a1.08,1.08,0,0,0-1.08,1.08v18a1.08,1.08,0,0,0,1.08,1.08h19.6a1.08,1.08,0,0,1,1.08,1.08v4.83A4.55,4.55,0,0,0,194.8,74l25,.09a1.1,1.1,0,0,0,1.1-1.1ZM197.35,48.09h13.57A1.08,1.08,0,0,1,212,49.16V50.6a1.08,1.08,0,0,1-1.08,1.08H197.35a1.08,1.08,0,0,1-1.08-1.08V49.16A1.08,1.08,0,0,1,197.35,48.09Zm0,8h13.57A1.09,1.09,0,0,1,212,57.22v1.07a1.09,1.09,0,0,1-1.08,1.08H197.35a1.09,1.09,0,0,1-1.08-1.08V57.22A1.09,1.09,0,0,1,197.35,56.14Zm-8.15,3.23H175.38a1.09,1.09,0,0,1-1.08-1.08V57.22a1.09,1.09,0,0,1,1.08-1.08H189.2a1.09,1.09,0,0,1,1.08,1.08v1.07A1.09,1.09,0,0,1,189.2,59.37Zm0-7.69H175.38a1.08,1.08,0,0,1-1.08-1.08V49.16a1.08,1.08,0,0,1,1.08-1.07H189.2a1.08,1.08,0,0,1,1.08,1.07V50.6A1.08,1.08,0,0,1,189.2,51.68Z"/><path class="cls-1" d="M153.87,53.78h-1.58V18.31a1.16,1.16,0,0,0-1.16-1.16h-9.51a1.08,1.08,0,0,0-1.08,1.08v3.71a1.16,1.16,0,0,0,1.16,1.16h3.57a1.16,1.16,0,0,1,1.16,1.16v4.51a1.16,1.16,0,0,1-1.16,1.16H141.7a1.16,1.16,0,0,0-1.16,1.16v3.49a1.16,1.16,0,0,0,1.16,1.16h3.57a1.16,1.16,0,0,1,1.16,1.17v3.2a1.16,1.16,0,0,1-1.16,1.16H141.7a1.16,1.16,0,0,0-1.16,1.17v3.48a1.17,1.17,0,0,0,1.16,1.17h3.57a1.16,1.16,0,0,1,1.16,1.16V52.7a1.08,1.08,0,0,1-1.08,1.08H139.7a1.08,1.08,0,0,1-1.08-1.08V18.22a1.07,1.07,0,0,0-1.07-1.07H113.39a1.07,1.07,0,0,0-1.08,1.07V52.7a1.08,1.08,0,0,1-1.08,1.08h-5.65a1.08,1.08,0,0,1-1.08-1.08V48.25a1.16,1.16,0,0,1,1.16-1.16h3.57a1.17,1.17,0,0,0,1.16-1.17V42.44a1.16,1.16,0,0,0-1.16-1.17h-3.57a1.16,1.16,0,0,1-1.16-1.16v-3.2a1.16,1.16,0,0,1,1.16-1.17h3.57a1.16,1.16,0,0,0,1.16-1.16V31.09a1.16,1.16,0,0,0-1.16-1.16h-3.57a1.16,1.16,0,0,1-1.16-1.16V24.26a1.16,1.16,0,0,1,1.16-1.16h3.57a1.16,1.16,0,0,0,1.16-1.16V18.31a1.16,1.16,0,0,0-1.16-1.16H99.81a1.16,1.16,0,0,0-1.17,1.16V53.78H97.06a1.16,1.16,0,0,0-1.16,1.16v3a1.16,1.16,0,0,0,1.16,1.16h56.81A1.16,1.16,0,0,0,155,57.89v-3A1.16,1.16,0,0,0,153.87,53.78ZM117.14,23.42a1.16,1.16,0,0,1,1.17-1.16h14.31a1.16,1.16,0,0,1,1.17,1.16V52.7a1.08,1.08,0,0,1-1.08,1.08H118.22a1.08,1.08,0,0,1-1.08-1.08Z"/><rect class="cls-1" x="119.82" y="25.7" width="11.29" height="4.74" rx="1.16"/><path class="cls-1" d="M119.82,35V48.8A1.16,1.16,0,0,0,121,50h9a1.16,1.16,0,0,0,1.16-1.17V35A1.16,1.16,0,0,0,130,33.79h-9A1.16,1.16,0,0,0,119.82,35Zm6.51,10.65H124.6a1.16,1.16,0,0,1-1.16-1.16V39a1.16,1.16,0,0,1,1.16-1.16h1.73A1.16,1.16,0,0,1,127.49,39v5.49A1.16,1.16,0,0,1,126.33,45.6Z"/><path class="cls-1" d="M97.08,68a65.4,65.4,0,0,0,15.06-7.5,1.16,1.16,0,0,1,1.4.08l2.83,2.36a1.16,1.16,0,0,1,0,1.78c-4.17,3.45-11.24,6.91-16.32,9.29a1.18,1.18,0,0,1-1.52-.49l-2.11-3.86A1.16,1.16,0,0,1,97.08,68Z"/><path class="cls-1" d="M153.85,68a65.4,65.4,0,0,1-15.06-7.5,1.16,1.16,0,0,0-1.4.08l-2.83,2.36a1.16,1.16,0,0,0,0,1.78c4.17,3.45,11.24,6.91,16.32,9.29a1.18,1.18,0,0,0,1.52-.49l2.11-3.86A1.16,1.16,0,0,0,153.85,68Z"/><path class="cls-2" d="M71.16,5.68C60.07-5.42,36.41.25,18.33,18.33S-5.42,60.07,5.68,71.16s34.74,5.43,52.83-12.65S82.26,16.77,71.16,5.68ZM7.64,69.2c-9.39-9.39-4.89-29.1,10.05-44s34.65-19.43,44-10,4.89,29.1-10,44S17,78.58,7.64,69.2Z"/><path class="cls-3" d="M48.46,28.29C41,20.84,26.17,23.61,15.31,34.47S1.68,60.17,9.13,67.62s22.28,4.67,33.14-6.19S55.9,35.73,48.46,28.29ZM11,65.76c-6.27-6.27-3.93-18.09,4.8-26.82s20.74-10.88,26.82-4.8S46.54,52.23,37.81,61,17.26,72,11,65.76Z"/><path class="cls-4" d="M30.61,46.23a12.24,12.24,0,0,0-17.32.16C8.46,51.22,8.14,59.21,12.88,64s12.74,4.43,17.57-.4A12.25,12.25,0,0,0,30.61,46.23Z"/></g></g></svg>